<svg width="17" height="23" viewBox="0 0 17 23" fill="none" xmlns="http://www.w3.org/2000/svg">
<path d="M14.9897 15.4094L14.4216 15.7752C14.7712 15.4551 15.0334 14.9978 15.0334 14.5406C15.0334 13.7633 14.6838 13.1231 13.5475 12.5744L3.84575 8.13907C1.87917 7.22456 0.655518 6.08144 0.655518 4.02381C0.655518 2.14908 1.57325 0.914502 2.97171 0C2.7532 0.320076 2.6221 0.731602 2.6221 1.23458C2.6221 2.3777 3.53984 2.88068 4.45757 3.29221L13.8972 7.63609C15.6015 8.41342 17 9.64799 17 11.7971C17 13.5346 16.2134 14.632 14.9897 15.4094Z" fill="#0168A2"/>
<path d="M10.5933 11.1359L13.6524 12.5534C14.7887 13.1021 15.1383 13.6965 15.1383 14.5196C15.1383 14.9768 14.8761 15.4341 14.5264 15.7542L9.36963 13.3765L10.2437 12.8735C10.9866 12.462 11.2051 12.1876 11.2051 11.9133C11.2488 11.5932 11.074 11.3646 10.5933 11.1359Z" fill="#0168A1"/>
<path d="M5.15681 22.0854C4.45758 22.497 3.84576 22.7713 3.19023 22.7713C1.48586 22.7713 0.0874035 21.3081 0 19.5705L3.27763 17.5129L8.43444 19.9363L5.15681 22.0854Z" fill="#0168A1"/>
<path d="M6.93256 13.2801L4.48526 12.137C3.39271 11.634 2.38757 11.2225 2.38757 9.94216C2.38757 9.302 2.56238 8.9362 2.86829 8.61613L8.0251 10.9938L6.75775 11.7712C6.40814 11.9998 6.14593 12.1827 6.14593 12.5028C6.14593 12.7771 6.49554 13.0515 6.93256 13.2801Z" fill="#155477"/>
<path d="M15.9074 23C14.5964 21.9483 13.1979 21.2624 11.5373 20.4394L3.75835 16.8271C1.79177 15.9126 0.480713 14.678 0.480713 12.6661C0.480713 10.6542 1.39845 9.69399 2.5784 8.91666L3.01542 8.64231C2.7095 8.96239 2.5347 9.32819 2.5347 9.96834C2.5347 11.2029 3.58354 11.6602 4.63238 12.1631L13.6787 16.3241C15.2519 17.01 16.6941 18.2446 16.6941 20.3479C16.7815 21.4911 16.3445 22.497 15.9074 23Z" fill="#155477"/>
</svg>
